# xmcd CD database file generated by MAGIX-FreeDB-MP3_Maker_15 v2.0beta1
# 
# Track frame offsets:
#      150
#      21808
#      40478
#      58962
#      71728
#      84835
#      101951
#      118970
#      129585
#      145057
#      166389
#      184878
#      193921
#      217105
#      229679
#      240000
#      252712
#      264541
#      279181
#      293643
# 
# Disc length: 4098 seconds
# 
# Revision: 1 
# Processed by: cddbd v1.5.2PL0 Copyright (c) Steve Scherf et al.
# Submitted via: MAGIX-FreeDB-MP3_Maker_15 v2.0beta1
# 
DISCID=35100014
DTITLE=Jonny Hill - Ruf Teddybär Eins-Vier  CD1
DYEAR=2007
DGENRE=Schlager
TTITLE0=Jonny Hill - Ruf Teddybär Eins-Vier
TTITLE1=Jonny Hill - Sylvias Mutter
TTITLE2=Jonny Hill - Wieder mal auf Tournee
TTITLE3=Jonny Hill - Kann liebe alles verzeihn
TTITLE4=Jonny Hill - Mein Lied für dich
TTITLE5=Jonny Hill - Wo der Mond versinkt
TTITLE6=Jonny Hill - Rosen für Mama
TTITLE7=Jonny Hill - König der Landstraße
TTITLE8=Jonny Hill - Lucille
TTITLE9=Jonny Hill - Papillon
TTITLE10=Jonny Hill - Der Haus Song
TTITLE11=Jonny Hill - Ein Ring aus Feuer
TTITLE12=Jonny Hill - Tommy und Strolch
TTITLE13=Jonny Hill - Fünfhundert Meilen von zu haus
TTITLE14=Jonny Hill - Heute Nacht da brauche ich dich
TTITLE15=Jonny Hill - Green green grass of home
TTITLE16=Jonny Hill - Ich komm nicht los von dir
TTITLE17=Jonny Hill - Nur noch einmal nach Haus
TTITLE18=Jonny Hill - Vieleicht bist du auch so allein
TTITLE19=Jonny Hill - Ich lösche das Licht aus
EXTD=YEAR: 2007
EXTT0=
EXTT1=
EXTT2=
EXTT3=
EXTT4=
EXTT5=
EXTT6=
EXTT7=
EXTT8=
EXTT9=
EXTT10=
EXTT11=
EXTT12=
EXTT13=
EXTT14=
EXTT15=
EXTT16=
EXTT17=
EXTT18=
EXTT19=
PLAYORDER=
